<svg width="396" height="81" viewBox="0 0 396 81" fill="none" xmlns="http://www.w3.org/2000/svg">
<g clip-path="url(#clip0)">
<path d="M101.615 24.8198C105.455 24.8198 108.447 25.7478 110.591 27.6038C112.767 29.4278 113.855 32.0198 113.855 35.3798C113.855 38.7398 112.767 41.3478 110.591 43.2038C108.447 45.0278 105.455 45.9398 101.615 45.9398H95.3272V56.4998H87.0712V24.8198H101.615ZM100.319 39.7478C103.807 39.7478 105.551 38.2918 105.551 35.3798C105.551 32.4678 103.807 31.0118 100.319 31.0118H95.3272V39.7478H100.319ZM143.771 24.8198V31.2038H133.451V56.4998H125.195V31.2038H114.827V24.8198H143.771ZM158.872 24.3398C161.816 24.3398 164.408 24.8038 166.648 25.7318C168.92 26.6278 170.888 27.9558 172.552 29.7158L168.568 35.0438C167.192 33.6038 165.704 32.5318 164.104 31.8278C162.536 31.0918 160.744 30.7238 158.728 30.7238C156.968 30.7238 155.704 31.0118 154.936 31.5878C154.168 32.1638 153.784 32.8678 153.784 33.6998C153.784 34.3718 154.088 34.9478 154.696 35.4278C155.336 35.8758 156.36 36.2598 157.768 36.5798L163.096 37.7798C166.264 38.5158 168.584 39.5878 170.056 40.9958C171.528 42.4038 172.264 44.2758 172.264 46.6118C172.264 48.8518 171.688 50.7558 170.536 52.3238C169.384 53.8598 167.8 55.0278 165.784 55.8278C163.768 56.5958 161.464 56.9798 158.872 56.9798C155.672 56.9798 152.744 56.4678 150.088 55.4438C147.432 54.3878 145.32 53.0118 143.752 51.3158L147.736 45.7958C148.92 47.1718 150.52 48.3238 152.536 49.2518C154.552 50.1478 156.632 50.5958 158.776 50.5958C162.104 50.5958 163.768 49.6198 163.768 47.6678C163.768 46.9958 163.512 46.4358 163 45.9878C162.52 45.5078 161.624 45.1078 160.312 44.7878L154.456 43.4918C152.664 43.1078 151.064 42.5638 149.656 41.8598C148.28 41.1558 147.192 40.2278 146.392 39.0758C145.592 37.8918 145.192 36.4198 145.192 34.6598C145.192 32.6758 145.736 30.9158 146.824 29.3798C147.912 27.8118 149.48 26.5798 151.528 25.6838C153.576 24.7878 156.024 24.3398 158.872 24.3398Z" fill="#59AD15"/>
<path d="M189.696 24.8398C192.544 24.8398 195.008 25.3838 197.088 26.4718C199.168 27.5278 200.928 29.0958 202.368 31.1758L198.912 34.4878C197.696 32.6318 196.32 31.3038 194.784 30.5038C193.28 29.6718 191.488 29.2558 189.408 29.2558C187.072 29.2558 185.376 29.7038 184.32 30.5998C183.264 31.4958 182.736 32.5838 182.736 33.8638C182.736 34.8558 183.072 35.7198 183.744 36.4558C184.448 37.1918 185.744 37.7678 187.632 38.1838L194.064 39.6238C197.104 40.3278 199.264 41.3678 200.544 42.7438C201.856 44.0878 202.512 45.8158 202.512 47.9278C202.512 49.8798 201.984 51.5758 200.928 53.0158C199.872 54.4238 198.4 55.5278 196.512 56.3278C194.624 57.0958 192.432 57.4798 189.936 57.4798C186.576 57.4798 183.712 56.8558 181.344 55.6078C178.976 54.3278 177.152 52.7438 175.872 50.8558L179.424 47.3038C180.416 48.9998 181.808 50.3918 183.6 51.4798C185.424 52.5358 187.584 53.0638 190.08 53.0638C192.288 53.0638 194.016 52.6798 195.264 51.9118C196.544 51.1118 197.184 49.9758 197.184 48.5038C197.184 47.6078 196.864 46.8078 196.224 46.1038C195.616 45.3678 194.464 44.8078 192.768 44.4238L185.808 42.8398C182.928 42.2318 180.8 41.2238 179.424 39.8158C178.048 38.4078 177.36 36.6478 177.36 34.5358C177.36 32.7438 177.856 31.1118 178.848 29.6398C179.84 28.1678 181.248 26.9998 183.072 26.1358C184.928 25.2718 187.136 24.8398 189.696 24.8398ZM234.508 48.5998C233.548 51.4798 231.9 53.6878 229.564 55.2238C227.228 56.7278 224.508 57.4798 221.404 57.4798C218.332 57.4798 215.676 56.8238 213.436 55.5118C211.228 54.1998 209.516 52.3278 208.3 49.8958C207.084 47.4318 206.476 44.5198 206.476 41.1598C206.476 37.7998 207.084 34.9038 208.3 32.4718C209.516 30.0078 211.228 28.1198 213.436 26.8078C215.676 25.4958 218.316 24.8398 221.356 24.8398C224.492 24.8398 227.148 25.4958 229.324 26.8078C231.5 28.1198 233.068 30.0558 234.028 32.6158L229.18 34.7758C227.964 31.1278 225.452 29.3038 221.644 29.3038C218.668 29.3038 216.284 30.3438 214.492 32.4238C212.732 34.4718 211.852 37.3838 211.852 41.1598C211.852 44.9038 212.7 47.8158 214.396 49.8958C216.092 51.9758 218.46 53.0158 221.5 53.0158C223.452 53.0158 225.132 52.5198 226.54 51.5278C227.98 50.5038 229.004 48.9838 229.612 46.9678L234.508 48.5998ZM244.761 25.3198V38.7598H260.409V25.3198H265.593V56.9998H260.409V43.1758H244.761V56.9998H239.625V25.3198H244.761ZM286.681 24.8398C289.753 24.8398 292.409 25.4958 294.649 26.8078C296.889 28.1198 298.617 30.0078 299.833 32.4718C301.049 34.9038 301.657 37.7998 301.657 41.1598C301.657 44.5198 301.049 47.4318 299.833 49.8958C298.617 52.3278 296.889 54.1998 294.649 55.5118C292.409 56.8238 289.753 57.4798 286.681 57.4798C283.609 57.4798 280.953 56.8238 278.713 55.5118C276.505 54.1998 274.793 52.3278 273.577 49.8958C272.361 47.4318 271.753 44.5198 271.753 41.1598C271.753 37.7998 272.361 34.9038 273.577 32.4718C274.793 30.0078 276.505 28.1198 278.713 26.8078C280.953 25.4958 283.609 24.8398 286.681 24.8398ZM286.681 29.3038C283.705 29.3038 281.369 30.3438 279.673 32.4238C277.977 34.4718 277.129 37.3838 277.129 41.1598C277.129 44.9358 277.977 47.8638 279.673 49.9438C281.369 51.9918 283.705 53.0158 286.681 53.0158C289.689 53.0158 292.041 51.9918 293.737 49.9438C295.433 47.8638 296.281 44.9358 296.281 41.1598C296.281 37.3838 295.433 34.4718 293.737 32.4238C292.041 30.3438 289.689 29.3038 286.681 29.3038ZM321.006 24.8398C324.078 24.8398 326.734 25.4958 328.974 26.8078C331.214 28.1198 332.942 30.0078 334.158 32.4718C335.374 34.9038 335.982 37.7998 335.982 41.1598C335.982 44.5198 335.374 47.4318 334.158 49.8958C332.942 52.3278 331.214 54.1998 328.974 55.5118C326.734 56.8238 324.078 57.4798 321.006 57.4798C317.934 57.4798 315.278 56.8238 313.038 55.5118C310.83 54.1998 309.118 52.3278 307.902 49.8958C306.686 47.4318 306.078 44.5198 306.078 41.1598C306.078 37.7998 306.686 34.9038 307.902 32.4718C309.118 30.0078 310.83 28.1198 313.038 26.8078C315.278 25.4958 317.934 24.8398 321.006 24.8398ZM321.006 29.3038C318.03 29.3038 315.694 30.3438 313.998 32.4238C312.302 34.4718 311.454 37.3838 311.454 41.1598C311.454 44.9358 312.302 47.8638 313.998 49.9438C315.694 51.9918 318.03 53.0158 321.006 53.0158C324.014 53.0158 326.366 51.9918 328.062 49.9438C329.758 47.8638 330.606 44.9358 330.606 41.1598C330.606 37.3838 329.758 34.4718 328.062 32.4238C326.366 30.3438 324.014 29.3038 321.006 29.3038ZM347.316 52.5838H364.788V56.9998H342.18V25.3198H347.316V52.5838ZM380.274 24.8398C383.122 24.8398 385.586 25.3838 387.666 26.4718C389.746 27.5278 391.506 29.0958 392.946 31.1758L389.49 34.4878C388.274 32.6318 386.898 31.3038 385.362 30.5038C383.858 29.6718 382.066 29.2558 379.986 29.2558C377.65 29.2558 375.954 29.7038 374.898 30.5998C373.842 31.4958 373.314 32.5838 373.314 33.8638C373.314 34.8558 373.65 35.7198 374.322 36.4558C375.026 37.1918 376.322 37.7678 378.21 38.1838L384.642 39.6238C387.682 40.3278 389.842 41.3678 391.122 42.7438C392.434 44.0878 393.09 45.8158 393.09 47.9278C393.09 49.8798 392.562 51.5758 391.506 53.0158C390.45 54.4238 388.978 55.5278 387.09 56.3278C385.202 57.0958 383.01 57.4798 380.514 57.4798C377.154 57.4798 374.29 56.8558 371.922 55.6078C369.554 54.3278 367.73 52.7438 366.45 50.8558L370.002 47.3038C370.994 48.9998 372.386 50.3918 374.178 51.4798C376.002 52.5358 378.162 53.0638 380.658 53.0638C382.866 53.0638 384.594 52.6798 385.842 51.9118C387.122 51.1118 387.762 49.9758 387.762 48.5038C387.762 47.6078 387.442 46.8078 386.802 46.1038C386.194 45.3678 385.042 44.8078 383.346 44.4238L376.386 42.8398C373.506 42.2318 371.378 41.2238 370.002 39.8158C368.626 38.4078 367.938 36.6478 367.938 34.5358C367.938 32.7438 368.434 31.1118 369.426 29.6398C370.418 28.1678 371.826 26.9998 373.65 26.1358C375.506 25.2718 377.714 24.8398 380.274 24.8398Z" fill="#4F81BD"/>
<path d="M18.2672 23.2866L18.5035 23.3299C18.4593 21.275 18.7891 18.9727 19.4281 17.1069C20.1663 14.9515 21.343 12.9724 22.884 11.2944C24.425 9.61635 26.297 8.27576 28.3818 7.35711C30.4667 6.43846 32.7192 5.96167 34.9975 5.9568C37.2757 5.95193 39.5303 6.41908 41.6191 7.32881C43.7078 8.23854 45.5855 9.57112 47.1337 11.2426C48.6819 12.914 49.867 14.888 50.6144 17.0402C51.2589 18.8962 51.5905 21.2328 51.5572 23.2911L51.8008 23.2361C51.9007 21.1017 51.5922 18.966 50.8902 16.9444C50.1296 14.7541 48.9234 12.7452 47.3479 11.0442C45.7723 9.34316 43.8614 7.98699 41.7357 7.06116C39.6099 6.13533 37.3155 5.65991 34.9969 5.66486C32.6783 5.66982 30.3858 6.15504 28.2641 7.08996C26.1423 8.02487 24.2373 9.38919 22.669 11.0969C21.1007 12.8046 19.9032 14.8188 19.1519 17.0123C18.4608 19.0302 18.1612 21.1597 18.2672 23.2866Z" stroke="#4F81BD" stroke-width="1.45969"/>
<path d="M51.5502 56.525L51.6861 56.538C51.7753 58.6472 51.4659 60.7563 50.7721 62.754C50.0115 64.9443 48.8054 66.9533 47.2298 68.6543C45.6542 70.3553 43.7433 71.7115 41.6176 72.6373C39.4919 73.5631 37.1974 74.0386 34.8788 74.0336C32.5602 74.0286 30.2678 73.5434 28.146 72.6085C26.0243 71.6736 24.1192 70.3093 22.5509 68.6015C20.9826 66.8938 19.7851 64.8797 19.0339 62.6862C18.3616 60.7231 18.0597 58.6545 18.1414 56.5853L18.4326 56.6095C18.3541 58.6385 18.6508 60.6667 19.3101 62.5916C20.0482 64.747 21.2249 66.7261 22.7659 68.4041C24.307 70.0821 26.1789 71.4227 28.2638 72.3414C30.3486 73.26 32.6012 73.7368 34.8794 73.7417C37.1577 73.7465 39.4123 73.2794 41.501 72.3697C43.5898 71.4599 45.4675 70.1273 47.0156 68.4559C48.5638 66.7845 49.749 64.8105 50.4963 62.6583C51.1437 60.7942 51.5749 58.5864 51.5502 56.525Z" stroke="#4F81BD" stroke-width="1.45969"/>
<path d="M51.5903 56.4844L51.6033 56.6204C53.7126 56.7096 55.8216 56.4002 57.8193 55.7064C60.0096 54.9458 62.0186 53.7397 63.7196 52.1641C65.4206 50.5885 66.7768 48.6776 67.7026 46.5519C68.6285 44.4262 69.1039 42.1317 69.0989 39.8131C69.094 37.4945 68.6087 35.2021 67.6738 33.0803C66.7389 30.9586 65.3746 29.0535 63.6669 27.4852C61.9591 25.9169 59.945 24.7194 57.7515 23.9682C55.7885 23.2959 53.7198 22.994 51.6506 23.0757L51.6749 23.3669C53.7038 23.2884 55.732 23.5851 57.6569 24.2444C59.8123 24.9825 61.7914 26.1592 63.4694 27.7002C65.1474 29.2413 66.488 31.1132 67.4067 33.1981C68.3253 35.2829 68.8021 37.5355 68.807 39.8137C68.8118 42.092 68.3447 44.3466 67.435 46.4353C66.5252 48.5241 65.1927 50.4018 63.5212 51.9499C61.8498 53.4981 59.8758 54.6833 57.7236 55.4306C55.8595 56.078 53.6518 56.5092 51.5903 56.4844Z" stroke="#4F81BD" stroke-width="1.45969"/>
<path d="M18.3421 56.4854L18.3103 56.6166C16.1729 56.7178 14.0341 56.4094 12.0096 55.7064C9.81935 54.9458 7.81038 53.7397 6.10937 52.1641C4.40836 50.5885 3.0522 48.6776 2.12636 46.5519C1.20053 44.4262 0.725108 42.1317 0.730065 39.8131C0.73502 37.4945 1.22025 35.2021 2.15516 33.0803C3.09007 30.9586 4.45439 29.0535 6.16212 27.4852C7.86985 25.9169 9.88395 24.7194 12.0775 23.9682C14.0405 23.2959 16.1092 22.994 18.1783 23.0757L18.1541 23.3669C16.1252 23.2884 14.097 23.5851 12.1721 24.2444C10.0167 24.9825 8.03762 26.1592 6.35959 27.7002C4.68156 29.2413 3.34096 31.1132 2.42231 33.1981C1.50366 35.2829 1.02687 37.5355 1.022 39.8137C1.01713 42.092 1.48428 44.3466 2.39402 46.4353C3.30375 48.5241 4.63633 50.4018 6.30775 51.9499C7.97918 53.4981 9.95321 54.6833 12.1054 55.4306C13.9397 56.0676 16.2709 56.4926 18.3421 56.4854Z" stroke="#4F81BD" stroke-width="1.45969"/>
<circle cx="35.0327" cy="22.4509" r="11.6775" fill="#59AD15"/>
<circle cx="35.0327" cy="57.4834" r="11.6775" fill="#59AD15"/>
<circle cx="52.5487" cy="39.9673" r="11.6775" fill="#59AD15"/>
<circle cx="17.5165" cy="39.9673" r="11.6775" fill="#59AD15"/>
</g>
<defs>
<clipPath id="clip0">
<rect width="81" height="395.567" fill="white" transform="translate(395.567 -0.000244141) rotate(90)"/>
</clipPath>
</defs>
</svg>
